<?xml version="1.0" encoding="UTF-8"?>
<svg width="145px" height="48px" viewBox="0 0 145 48" version="1.1" xmlns="http://www.w3.org/2000/svg"
     xmlns:xlink="http://www.w3.org/1999/xlink">
    <!-- Generator: Sketch 41 (35326) - http://www.bohemiancoding.com/sketch -->
    <title>logo</title>
    <desc>Created with Sketch.</desc>
    <defs></defs>
    <g id="Health-MOT" stroke="none" stroke-width="1" fill="none" fill-rule="evenodd">
        <g id="07.A-user-with-inactive-gym-membership" transform="translate(-159.000000, -403.000000)" fill="#FEFEFE">
            <g id="nav-/-main-/-logged-in-/-xl" transform="translate(0.000000, 344.000000)">
                <g id="nav-/-primary" transform="translate(159.000000, 59.000000)">
                    <g id="logo">
                        <path d="M100.222807,4.2109365 C100.617006,4.2109365 101.461898,4.29500591 102.110318,4.43616724 L101.715491,1.08593841 C100.983587,0.944777079 100.307548,0.888939931 99.5750152,0.888939931 C96.3360541,0.888939931 94.5615303,2.63432132 94.47679,6.4632439 L89.632158,6.4632439 L89.632158,5.98392277 C89.632158,4.63316571 90.308197,4.2109365 91.8015087,4.2109365 C92.1957078,4.2109365 93.0405996,4.29500591 93.6883918,4.43616724 L93.2941926,1.08593841 C92.5616602,0.944777079 91.8856212,0.888939931 91.1537165,0.888939931 C87.9141277,0.888939931 86.1396039,2.63432132 86.0554913,6.4632439 L84.7599069,6.4632439 L84.1121147,9.7570082 L86.0554913,9.7570082 L86.0554913,21.0172904 L89.632158,21.0172904 L89.632158,9.7570082 L94.47679,9.7570082 L94.47679,21.0172904 L98.0540844,21.0172904 L98.0540844,9.7570082 L101.884972,9.7570082 L101.884972,6.4632439 L98.0540844,6.4632439 L98.0540844,5.98392277 C98.0540844,4.63316571 98.7301234,4.2109365 100.222807,4.2109365 Z"
                              id="Fill-3"></path>
                        <path d="M79.4642684,16.4009386 C78.985329,17.1042357 77.7462381,18.0333909 76.2253074,18.0333909 C74.9855887,18.0333909 73.6900043,17.639394 73.6900043,15.3870866 L73.6900043,6.46318116 L70.1133377,6.46318116 L70.1133377,16.1750805 C70.1133377,19.8917014 72.4791602,21.2982956 75.4927749,21.2982956 C77.5491385,21.2982956 78.8447229,20.4256049 79.5490087,19.8628417 L79.5490087,21.0172277 L83.0415628,21.0172277 L83.0415628,6.46318116 L79.4642684,6.46318116 L79.4642684,16.4009386 Z"
                              id="Fill-5"></path>
                        <polygon id="Fill-7"
                                 points="103.377468 21.0167258 106.954762 21.0167258 106.954762 6.46330664 103.377468 6.46330664"></polygon>
                        <path d="M112.277957,13.9793003 C112.193844,11.5582267 113.630035,9.30591934 116.615403,9.30591934 C117.826874,9.30591934 118.755879,9.89754214 119.122459,10.8543023 L112.277957,13.9793003 Z M116.53129,6.18092124 C111.827264,6.18092124 108.644797,9.53115008 108.644797,13.9228358 C108.644797,17.9205246 111.264212,21.3554502 116.418303,21.3554502 C118.840619,21.3554502 120.783996,20.7355952 122.783866,19.5818366 L121.685381,16.4850707 C120.052091,17.5829922 118.558779,18.2022199 116.700143,18.2022199 C115.235706,18.2022199 114.080727,17.8640601 113.235835,16.9349048 L123.235186,12.3744529 C122.530273,8.23623017 120.277437,6.18092124 116.53129,6.18092124 L116.53129,6.18092124 Z"
                              id="Fill-9"></path>
                        <path d="M141.148398,16.2316705 C140.218766,17.1884306 138.979675,18.0046568 137.233398,18.0046568 C134.670476,18.0046568 133.600238,16.0064397 133.600238,13.8388291 C133.600238,11.3888959 134.895823,9.47537567 137.430498,9.47537567 C139.064416,9.47537567 140.36,10.3480664 141.148398,11.3888959 L141.148398,16.2316705 Z M141.148398,7.47590389 C140.444113,6.91314073 139.176775,6.18098398 137.148658,6.18098398 C133.064805,6.18098398 129.910584,9.02491419 129.910584,13.6982952 C129.910584,18.9620442 133.121299,21.2984211 136.585606,21.2984211 C138.810823,21.2984211 140.218766,20.595124 141.204892,19.694201 L141.204892,21.0167258 L144.725693,21.0167258 L144.725693,1.11360603 L141.148398,1.56469489 L141.148398,7.47590389 Z"
                              id="Fill-10"></path>
                        <polygon id="Fill-11"
                                 points="124.643193 21.0169767 128.220487 21.0169767 128.220487 1.11385698 124.643193 1.56431846"></polygon>
                        <path d="M110.109108,38.8638465 L110.109108,33.7123991 L113.855255,33.7123991 L113.855255,30.4186348 L110.109108,30.4186348 L110.109108,26.2797847 L106.531814,26.7302462 L106.531814,30.4186348 L105.236857,30.4186348 L104.588437,33.7123991 L106.531814,33.7123991 L106.531814,39.4266096 C106.531814,43.3113694 107.546186,45.1979121 111.714779,45.1979121 C112.221965,45.1979121 113.03861,45.1414476 113.714649,45.0009136 L114.137095,41.5948476 C113.51755,41.7918461 112.672658,41.8759155 112.221965,41.8759155 C110.559801,41.8759155 110.109108,41.4260814 110.109108,38.8638465"
                              id="Fill-12"></path>
                        <polygon id="Fill-13"
                                 points="99.9695281 44.9724304 103.546823 44.9724304 103.546823 25.0693106 99.9695281 25.5197721"></polygon>
                        <path d="M123.150195,30.1366259 C121.291558,30.1366259 120.024221,30.7276213 119.122208,31.3757086 L119.122208,25.0692479 L115.545541,25.5197094 L115.545541,44.9723677 L119.122208,44.9723677 L119.122208,34.9787731 C119.714134,34.2472437 120.869113,33.4021579 122.24881,33.4021579 C123.516147,33.4021579 124.924719,33.7120854 124.924719,35.9361606 L124.924719,44.9723677 L128.502013,44.9723677 L128.502013,35.4292346 C128.502013,31.4315458 125.741364,30.1366259 123.150195,30.1366259"
                              id="Fill-14"></path>
                        <path d="M94.279816,40.6377111 C93.9703571,40.9470113 92.6182792,42.073165 90.6184091,42.073165 C88.9562446,42.073165 88.2808333,41.2569388 88.2808333,40.3277836 C88.2808333,39.1175605 88.9844913,38.4694731 90.9561147,38.4694731 C92.3646861,38.4694731 93.7726299,39.0046314 94.279816,39.3710235 L94.279816,40.6377111 Z M91.6321537,30.1365631 C89.9423701,30.1365631 88.2243398,30.4464907 86.7310281,30.9816489 L86.0273701,34.3594826 C87.2382143,33.7967195 89.2380844,33.2050967 91.040855,33.2050967 C93.1530844,33.2050967 94.279816,33.8807889 94.279816,35.6261703 L94.279816,36.2736302 C93.0972186,35.6544026 91.7727597,35.4291718 90.4495563,35.4291718 C87.1823485,35.4291718 84.6187987,36.8652531 84.6187987,40.2989239 C84.6187987,42.9458556 86.5621753,45.2540002 89.9706169,45.2540002 C92.3364394,45.2540002 93.6885173,44.3254723 94.3363095,43.6780124 L94.3363095,44.9723049 L97.8571104,44.9723049 L97.8571104,36.1330963 C97.8571104,32.8951691 96.702132,30.1365631 91.6321537,30.1365631 L91.6321537,30.1365631 Z"
                              id="Fill-15"></path>
                        <polygon id="Fill-16"
                                 points="64.0574848 33.0645 55.4102121 33.0645 55.4102121 25.2661209 51.7488052 25.2661209 51.7488052 44.9722422 55.4102121 44.9722422 55.4102121 36.583495 64.0574848 36.583495 64.0574848 44.9722422 67.7195195 44.9722422 67.7195195 25.2661209 64.0574848 25.2661209"></polygon>
                        <path d="M73.1271407,37.934754 C73.0424004,35.5136804 74.4785909,33.261373 77.4645866,33.261373 C78.6760584,33.261373 79.6050628,33.8529958 79.9716429,34.8097559 L73.1271407,37.934754 Z M77.3798463,30.1363749 C72.6764481,30.1363749 69.4933528,33.4866037 69.4933528,37.8782895 C69.4933528,41.8759783 72.1127684,45.3109039 77.267487,45.3109039 C79.689803,45.3109039 81.6331797,44.6910488 83.6330498,43.5372902 L82.5345649,40.4405244 C80.9012749,41.5384458 79.4079632,42.1576735 77.5493268,42.1576735 C76.0842619,42.1576735 74.9299113,41.8195137 74.0843918,40.8903585 L84.0837424,36.3299066 C83.3794567,32.1916838 81.1259935,30.1363749 77.3798463,30.1363749 L77.3798463,30.1363749 Z"
                              id="Fill-17"></path>
                        <path d="M39.8102348,25.3650233 L24.6430704,25.3650233 L24.6430704,45.491569 C24.5085839,45.5442428 24.3639474,45.604625 24.2345358,45.6534447 C23.133903,46.0587763 21.593017,46.5469729 20.4999967,46.7724426 C19.4076107,46.5469729 17.8667247,46.0587763 16.7749731,45.6566565 C16.6423896,45.6065521 16.4945813,45.5448852 16.3562885,45.4909266 L16.3562885,25.3650233 L1.18975855,25.3650233 L1.18975855,17.3598844 L16.3562885,17.3598844 L16.3562885,1.34511 C16.3797602,1.34318291 16.4070382,1.34125582 16.4305099,1.33997109 C17.9231837,1.2455436 19.1405407,1.20507467 20.4999967,1.20507467 C21.8594527,1.20507467 23.0761753,1.2455436 24.5637741,1.33932873 C24.5891489,1.34125582 24.6176956,1.34318291 24.6430704,1.34511 L24.6430704,17.3598844 L39.8102348,17.3598844 L39.8102348,25.3650233 Z M24.6430704,0.136181147 L24.6430704,0.136823511 C22.8998203,0.0269792838 21.6444011,0 20.4999967,0 C19.3562267,0 18.1001731,0.0269792838 16.3562885,0.136823511 L16.3562885,0.136181147 C12.3216921,0.410470532 5.88854086,1.23976233 0.000313852812,3.558696 L0.000313852812,3.55998073 L0.000313852812,17.3598844 L0.000313852812,25.3650233 L0.000313852812,26.3594026 L0.000313852812,26.3722499 C0.000313852812,26.4775976 0.00665755785,26.5790911 0.00856066935,26.6837964 C0.189990633,38.8257588 10.4122369,44.5415128 16.3562885,46.7859322 L16.3562885,46.7846475 C16.3575573,46.7852899 16.3581917,46.7859322 16.3594604,46.7859322 C17.5577863,47.2272362 19.3016708,47.7790268 20.4999967,48 C21.6989569,47.7790268 23.4422071,47.2272362 24.6411673,46.7859322 C24.6411673,46.7859322 24.6424361,46.7852899 24.6430704,46.7852899 L24.6430704,46.7859322 C30.5877564,44.5415128 40.8100027,38.8257588 40.9914327,26.6837964 C40.9933358,26.5790911 41.0003139,26.4775976 41.0003139,26.3722499 L41.0003139,26.3594026 L41.0003139,25.3650233 L41.0003139,17.3598844 L41.0003139,3.55998073 L41.0003139,3.558696 C35.1114525,1.23976233 28.7328571,0.410470532 24.6430704,0.136181147 L24.6430704,0.136181147 Z"
                              id="Fill-18"></path>
                        <polygon id="Fill-1"
                                 points="102.842474 3.11263863 105.18005 5.44901545 107.518253 3.11263863 105.18005 0.776261823"></polygon>
                        <polygon id="Fill-2"
                                 points="64.3671948 12.9946217 51.7490563 0.748092296 51.7490563 21.0169767 55.3822165 21.0169767 55.3822165 9.47562662 68.0009827 21.6085995 68.0009827 1.31085545 64.3671948 1.31085545"></polygon>
                    </g>
                </g>
            </g>
        </g>
    </g>
</svg>